<svg width="32" height="32" viewBox="0 0 32 32" fill="none" xmlns="http://www.w3.org/2000/svg">
  <rect width="32" height="32" rx="6" fill="black"/>
  <path d="M23 11H20.5L19 9H13L11.5 11H9C7.9 11 7 11.9 7 13V21C7 22.1 7.9 23 9 23H23C24.1 23 25 22.1 25 21V13C25 11.9 24.1 11 23 11ZM16 20C13.79 20 12 18.21 12 16C12 13.79 13.79 12 16 12C18.21 12 20 13.79 20 16C20 18.21 18.21 20 16 20ZM16 13.5C14.62 13.5 13.5 14.62 13.5 16C13.5 17.38 14.62 18.5 16 18.5C17.38 18.5 18.5 17.38 18.5 16C18.5 14.62 17.38 13.5 16 13.5Z" fill="white"/>
</svg>
